<svg width="370" height="99" viewBox="0 0 370 99" fill="none" xmlns="http://www.w3.org/2000/svg">
<path d="M319.932 65.811C316.532 65.811 313.817 65.2069 311.789 63.9986C309.531 62.7342 308.402 60.8656 308.402 58.3929V36.6866C306.716 34.3544 305.873 31.4883 305.873 28.0883C305.873 24.6603 306.716 21.6959 308.402 19.1951H314.96C318.332 19.1951 320.747 20.2628 322.204 22.3983C321.49 23.1851 320.861 24.1826 320.318 25.3908C319.775 26.5991 319.504 27.4702 319.504 28.004C319.504 28.5098 319.632 28.8891 319.89 29.142C320.175 29.3949 320.575 29.5214 321.09 29.5214C322.09 25.6156 323.99 22.7496 326.791 20.9231C329.105 19.3777 331.963 18.605 335.363 18.605C339.592 18.605 342.907 19.4901 345.307 21.2603C346.165 23.5082 346.593 26.2619 346.593 29.5214C346.593 32.7527 345.936 35.6891 344.622 38.3303C343.65 38.8361 342.307 39.2717 340.592 39.6369C338.878 39.9741 337.149 40.1427 335.406 40.1427C333.663 40.1427 332.091 40.0303 330.691 39.8055C329.319 39.5526 328.319 39.3279 327.691 39.1312C327.462 39.356 327.348 39.6791 327.348 40.1006C327.348 40.5221 327.619 40.8452 328.162 41.07C328.734 41.2667 329.677 41.4915 330.991 41.7444V62.9028C327.876 64.8416 324.19 65.811 319.932 65.811Z" fill="url(#paint0_linear_381_1527)"/>
<path d="M280.027 41.7865V49.1625C280.227 49.3592 280.556 49.4575 281.013 49.4575C281.47 49.4575 281.799 49.303 281.999 48.9939C282.199 48.6848 282.299 48.1509 282.299 47.3923V41.3651C282.299 38.6676 282.184 36.8833 281.956 36.0122C281.727 35.1131 281.299 34.6635 280.67 34.6635C280.27 34.6635 279.927 34.804 279.641 35.085C279.898 37.8668 280.027 40.1006 280.027 41.7865ZM263.996 60.4582C259.31 56.0186 256.967 50.0054 256.967 42.4188C256.967 34.804 259.167 28.8049 263.568 24.4215C267.997 20.01 273.798 17.8042 280.97 17.8042C288.142 17.8042 293.943 20.0943 298.372 24.6744C302.773 29.2545 304.973 35.2255 304.973 42.5874C304.973 49.9211 302.844 55.7517 298.587 60.0789C294.357 64.4061 288.6 66.5697 281.313 66.5697C274.026 66.5697 268.254 64.5325 263.996 60.4582Z" fill="url(#paint1_linear_381_1527)"/>
<path d="M230.306 41.7865V49.1625C230.506 49.3592 230.835 49.4575 231.292 49.4575C231.749 49.4575 232.078 49.303 232.278 48.9939C232.478 48.6848 232.578 48.1509 232.578 47.3923V41.3651C232.578 38.6676 232.464 36.8833 232.235 36.0122C232.006 35.1131 231.578 34.6635 230.949 34.6635C230.549 34.6635 230.206 34.804 229.92 35.085C230.178 37.8668 230.306 40.1006 230.306 41.7865ZM214.275 60.4582C209.589 56.0186 207.246 50.0054 207.246 42.4188C207.246 34.804 209.446 28.8049 213.847 24.4215C218.276 20.01 224.077 17.8042 231.249 17.8042C238.422 17.8042 244.222 20.0943 248.651 24.6744C253.052 29.2545 255.252 35.2255 255.252 42.5874C255.252 49.9211 253.124 55.7517 248.866 60.0789C244.637 64.4061 238.879 66.5697 231.592 66.5697C224.305 66.5697 218.533 64.5325 214.275 60.4582Z" fill="url(#paint2_linear_381_1527)"/>
<path d="M154.096 57.4654V15.2329C154.096 13.7718 155.282 12.5635 157.653 11.6082C160.054 10.6247 162.868 10.133 166.097 10.133C167.926 10.133 169.641 10.3578 171.241 10.8073C172.87 11.2288 174.113 11.7767 174.97 12.4511C176.142 13.9123 177.213 15.4015 178.185 16.9188C179.156 18.4362 181.342 21.9766 184.743 27.5402C185.057 27.5402 185.343 27.4418 185.6 27.2451C185.857 27.0485 185.986 26.7534 185.986 26.36C185.986 25.9386 185.629 25.1377 184.914 23.9576L180.285 16.118V13.7999C181.742 12.6197 183.514 11.7065 185.6 11.0602C187.686 10.414 189.843 10.0908 192.072 10.0908C195.701 10.0908 198.63 10.7371 200.859 12.0296C203.46 13.5751 204.76 15.9916 204.76 19.2791V59.1935C204.76 61.61 203.588 63.3662 201.245 64.462C199.245 65.4455 196.573 65.9372 193.23 65.9372C191.372 65.9372 189.558 65.7405 187.786 65.3471C186.043 64.9538 184.671 64.448 183.671 63.8298C181.642 61.2728 179.628 58.4067 177.627 55.2316L173.255 48.0664C172.427 48.1788 172.012 48.6143 172.012 49.373C172.012 49.8506 172.427 50.7639 173.255 52.1126L178.613 60.6265V62.8604C175.299 64.9678 171.555 66.0215 167.383 66.0215C163.24 66.0215 159.982 65.2769 157.61 63.7877C155.267 62.2984 154.096 60.191 154.096 57.4654Z" fill="url(#paint3_linear_381_1527)"/>
<path d="M107.547 43.9782V44.9476C107.547 45.3972 107.561 45.7203 107.589 45.917C107.875 46.0575 108.189 46.1278 108.532 46.1278C109.361 46.1278 109.775 45.5096 109.775 44.2732C109.775 40.1427 110.004 35.8577 110.461 31.418C110.947 26.9503 111.461 23.5082 112.004 21.0917C114.319 19.4339 117.405 18.605 121.263 18.605C125.12 18.605 128.092 19.3496 130.178 20.8388C132.293 22.3 133.35 24.0702 133.35 26.1495C133.35 27.0206 132.821 30.6172 131.764 36.9395C130.593 43.3741 129.092 50.1459 127.263 57.2549C126.892 58.6879 126.22 60.697 125.249 63.2821C124.306 65.8672 123.292 68.0168 122.206 69.7308C118.805 75.0415 114.605 78.329 109.604 79.5935C107.261 80.1835 104.903 80.4786 102.532 80.4786C97.9309 80.4786 94.3733 79.3546 91.8587 77.1067C89.5441 75.0836 88.3868 72.5688 88.3868 69.5622C88.3868 66.5837 89.2869 63.7738 91.0871 61.1325C91.5158 61.0201 92.3016 60.9639 93.4446 60.9639C94.5876 60.9639 96.0164 61.1044 97.7309 61.3854C102.474 62.2565 104.889 62.692 104.975 62.692C105.175 62.7201 105.389 62.7623 105.618 62.8185C105.875 62.8466 106.203 62.8606 106.604 62.8606C107.004 62.8606 107.346 62.7482 107.632 62.5234C107.918 62.2986 108.061 61.8491 108.061 61.1747L97.9452 59.278C95.4592 58.2665 93.3017 56.145 91.4729 52.9136C89.2155 48.9236 87.6867 43.5146 86.8866 36.6866C85.0006 34.2701 84.0576 31.3759 84.0576 28.004C84.0576 24.6322 84.9149 21.6959 86.6294 19.1951H97.6452C101.331 19.1951 104.089 20.2347 105.918 22.314C107.261 23.8595 108.118 26.1214 108.49 29.0999C107.861 33.9891 107.547 38.9485 107.547 43.9782Z" fill="url(#paint4_linear_381_1527)"/>
<path d="M71.6273 66.0215C67.7125 66.0215 64.6407 65.3893 62.4118 64.1248C60.0115 62.8042 58.7113 60.9356 58.5113 58.5191L58.1255 54.5572C60.7544 53.939 62.969 52.3374 64.7692 49.7523C65.255 49.0217 65.4979 48.3895 65.4979 47.8556C65.4979 47.1251 65.1264 46.7598 64.3835 46.7598H64.2549C64.2263 46.7879 64.1692 46.8019 64.0834 46.8019C62.0832 50.9324 58.8399 52.9977 54.3535 52.9977C52.0675 52.9977 50.1101 52.506 48.4813 51.5225C46.8811 50.5391 45.4095 48.8391 44.0664 46.4226H43.8093C43.0377 46.4226 42.652 46.7457 42.652 47.392C42.652 47.8416 42.8234 48.3474 43.1663 48.9093C44.3093 50.792 45.7381 52.2671 47.4526 53.3349C48.7957 54.2341 50.2101 54.7679 51.696 54.9365L51.3531 62.9025C49.6386 63.9984 47.8241 64.7852 45.9095 65.2628C44.0236 65.7686 41.3232 66.0215 37.8084 66.0215C34.3223 66.0215 31.2076 65.3471 28.4643 63.9984C25.0924 62.3406 23.4065 60.0365 23.4065 57.0861C23.4065 53.4051 24.1495 44.3152 25.6354 29.8162C26.4355 22.2576 27.0784 16.975 27.5642 13.9685C30.5075 11.3834 34.8509 10.0908 40.5945 10.0908C44.7665 10.0908 48.2241 10.8495 50.9674 12.3668L53.3248 20.1221L51.8246 26.3179C51.7103 26.7394 51.6532 27.1468 51.6532 27.5402C51.6532 28.5236 52.2247 29.0294 53.3677 29.0575L57.4397 12.409C58.6113 11.7908 60.14 11.2569 62.026 10.8073C63.912 10.3297 65.9694 10.0908 68.1983 10.0908C72.3703 10.0908 75.4564 10.7933 77.4567 12.1982C79.4855 13.5751 80.6857 15.9073 81.0572 19.1948C81.1429 19.813 81.2715 20.8386 81.4429 22.2717C84.0433 44.2449 85.3435 57.1844 85.3435 61.0902C82.1716 64.3777 77.5996 66.0215 71.6273 66.0215Z" fill="url(#paint5_linear_381_1527)"/>
<g filter="url(#filter0_d_381_1527)">
<path d="M335.364 8.76367C340.893 8.76367 346.595 9.90917 351.309 13.3857C352.836 14.5117 354.003 16.0444 354.674 17.8027C356.074 21.4733 356.597 25.4761 356.597 29.5215C356.597 34.1023 355.656 38.5401 353.607 42.6572C352.677 44.5257 351.169 46.0558 349.301 47.0283C347.19 48.1273 344.854 48.7981 342.71 49.2549C342.658 49.2661 342.605 49.2771 342.554 49.2871C342.036 49.389 341.516 49.4762 340.995 49.5557V62.9023C340.995 66.2773 339.237 69.4155 336.34 71.2188C331.389 74.3004 325.784 75.6514 319.933 75.6514C315.456 75.6514 310.738 74.8758 306.611 72.4189L306.178 72.1602C301.761 69.4428 298.943 65.152 298.471 59.9619C298.464 59.8897 298.489 59.8179 298.539 59.7656C302.653 55.5087 304.724 49.7927 304.724 42.5869C304.724 35.507 302.676 29.7436 298.594 25.2754L298.193 24.8477C297.623 24.2589 297.03 23.7094 296.415 23.1973C296.346 23.1394 296.313 23.0479 296.329 22.959C296.931 19.7178 298.142 16.6098 300.066 13.7559C301.92 11.0058 305.051 9.35357 308.403 9.35352H314.961C317.938 9.35356 321.04 9.89402 323.873 11.2373C327.482 9.49103 331.409 8.76368 335.364 8.76367ZM308.653 58.3926C308.653 60.6211 309.598 62.3313 311.515 63.5439L311.911 63.7803L311.917 63.7832C313.894 64.9604 316.559 65.5605 319.933 65.5605C324.098 65.5605 327.697 64.6232 330.741 62.7607V41.9482C329.53 41.7109 328.64 41.498 328.081 41.3057C328.077 41.304 328.071 41.3027 328.067 41.3008C327.474 41.0555 327.098 40.6632 327.098 40.1006C327.098 39.6341 327.226 39.2383 327.516 38.9531L327.571 38.9121C327.629 38.8797 327.7 38.8719 327.766 38.8926C328.379 39.0843 329.365 39.3063 330.734 39.5586C332.118 39.7806 333.675 39.8926 335.406 39.8926C337.133 39.8926 338.846 39.7256 340.544 39.3916C342.203 39.0379 343.496 38.6188 344.433 38.1436C345.704 35.5593 346.344 32.6875 346.344 29.5215C346.344 26.3162 345.926 23.6177 345.1 21.4189C342.762 19.7197 339.526 18.8545 335.364 18.8545C332.001 18.8545 329.195 19.6185 326.93 21.1309L326.928 21.1318C324.19 22.9173 322.32 25.7248 321.332 29.583C321.304 29.6936 321.204 29.7715 321.09 29.7715C320.536 29.7715 320.069 29.6347 319.724 29.3291L319.714 29.3203V29.3193C319.393 29.0032 319.254 28.5489 319.254 28.0039C319.254 27.4103 319.549 26.4943 320.091 25.2881C320.609 24.1365 321.207 23.1668 321.887 22.3818C320.479 20.4387 318.192 19.4444 314.961 19.4443H308.539C306.933 21.8756 306.124 24.7525 306.124 28.0879C306.124 31.4451 306.956 34.2578 308.606 36.54C308.636 36.5826 308.653 36.634 308.653 36.6865V58.3926Z" fill="#3B1389" stroke="#FFF49B" stroke-width="0.5" stroke-linejoin="round"/>
<path d="M280.97 18.0537C273.854 18.0537 268.119 20.2408 263.744 24.5986C259.401 28.9249 257.217 34.8549 257.217 42.4189C257.217 49.7145 259.397 55.5199 263.741 59.8613L264.169 60.2764L264.17 60.2773C268.37 64.2971 274.075 66.3193 281.313 66.3193C288.547 66.3193 294.235 64.1736 298.408 59.9043L298.409 59.9033C302.611 55.6323 304.723 49.8696 304.723 42.5869C304.723 35.2787 302.541 29.3738 298.192 24.8477V24.8467C293.816 20.3223 288.084 18.0538 280.97 18.0537ZM282.251 43.8457C282.324 43.8313 282.4 43.8511 282.458 43.8984C282.515 43.9459 282.549 44.0171 282.549 44.0918V47.3916C282.549 48.157 282.451 48.7558 282.209 49.1299C281.951 49.5275 281.532 49.707 281.013 49.707C280.53 49.707 280.121 49.6049 279.852 49.3408C279.804 49.2938 279.777 49.2291 279.777 49.1621V44.2275C279.777 44.158 279.806 44.0912 279.857 44.0439C279.908 43.9967 279.976 43.9724 280.046 43.9775C280.256 43.9932 280.464 44.0039 280.671 44.0039C281.171 44.0039 281.703 43.9544 282.251 43.8457ZM280.671 34.4131C281.052 34.4132 281.382 34.5533 281.644 34.8281C281.899 35.0952 282.077 35.4772 282.197 35.9482C282.393 36.6935 282.502 38.0454 282.536 39.9766C282.537 40.051 282.505 40.1224 282.448 40.1709C282.391 40.2193 282.316 40.2401 282.243 40.2275C281.649 40.1255 281.207 40.1162 281.013 40.1162C280.728 40.1162 280.391 40.1339 280.015 40.1816C279.946 40.1905 279.875 40.1701 279.822 40.125C279.769 40.0799 279.737 40.0141 279.734 39.9443C279.677 38.5787 279.564 36.9661 279.392 35.1074C279.386 35.0328 279.413 34.9588 279.467 34.9062C279.799 34.5796 280.205 34.4131 280.671 34.4131ZM308.652 58.3926C308.652 59.7212 308.99 60.8561 309.653 61.8096C309.711 61.893 309.712 62.0036 309.657 62.0889C308.559 63.7813 307.281 65.3856 305.808 66.8867C305.805 66.8907 305.802 66.8956 305.799 66.8994C299.322 73.5263 290.751 76.4101 281.313 76.4102C272.047 76.4102 263.551 73.7613 257.021 67.5127C257.02 67.511 257.018 67.5085 257.016 67.5068C254.133 64.7658 251.916 61.6604 250.305 58.2734C250.265 58.1885 250.275 58.0882 250.333 58.0137C253.438 53.9838 255.003 48.8486 255.003 42.5869C255.003 36.3022 253.387 31.0582 250.173 26.8359C250.117 26.7627 250.106 26.6639 250.144 26.5801C251.654 23.2644 253.734 20.2117 256.451 17.5059L256.453 17.5039L257.07 16.9053L257.072 16.9033C263.557 10.7745 271.821 7.96289 280.97 7.96289C290.232 7.96293 298.538 10.9272 305.001 17.2676L305.004 17.2695L305.619 17.8887L305.624 17.8945L305.642 17.9141C306.411 18.7137 307.127 19.5406 307.796 20.3906C307.856 20.4679 307.867 20.574 307.821 20.6611C306.693 22.8191 306.124 25.2921 306.124 28.0879C306.124 31.4451 306.955 34.2578 308.605 36.54C308.636 36.5826 308.652 36.634 308.652 36.6865V58.3926Z" fill="#3B1389" stroke="#FFF49B" stroke-width="0.5" stroke-linejoin="round"/>
<path d="M231.249 7.96289C240.222 7.96289 248.298 10.745 254.669 16.6836L255.28 17.2676L255.282 17.2695L255.897 17.8887L255.903 17.8945L255.921 17.9141C258.428 20.5235 260.396 23.4122 261.867 26.5215C261.907 26.6055 261.896 26.7042 261.84 26.7783C258.764 30.8449 257.217 36.0525 257.217 42.4189C257.217 48.6943 258.832 53.8637 262.043 57.9473C262.101 58.021 262.113 58.1209 262.074 58.2061C260.622 61.3615 258.645 64.2781 256.086 66.8867C256.083 66.8906 256.081 66.8957 256.077 66.8994C249.6 73.5263 241.03 76.4102 231.592 76.4102C222.325 76.4101 213.83 73.7614 207.3 67.5127C207.296 67.5092 207.293 67.5046 207.29 67.501C205.79 66.0746 204.469 64.5497 203.321 62.9375C203.255 62.8443 203.261 62.7179 203.335 62.6309C204.114 61.7136 204.51 60.5737 204.51 59.1934V20.0566C204.51 19.9991 204.53 19.943 204.566 19.8984C205.237 19.0749 205.957 18.2756 206.729 17.5059L206.731 17.5039L207.349 16.9053L207.352 16.9033C213.836 10.7745 222.1 7.96292 231.249 7.96289ZM231.249 18.0537C224.132 18.0537 218.399 20.2408 214.023 24.5986C209.68 28.9249 207.496 34.8547 207.496 42.4189C207.496 49.9498 209.82 55.8924 214.447 60.2764L214.448 60.2773C218.649 64.2971 224.354 66.3193 231.592 66.3193C238.826 66.3193 244.515 64.1738 248.688 59.9043V59.9033C252.89 55.6323 255.002 49.8696 255.002 42.5869C255.002 35.5071 252.955 29.7436 248.873 25.2754L248.472 24.8477C244.096 20.3227 238.363 18.0537 231.249 18.0537ZM232.529 43.8457C232.603 43.8312 232.679 43.851 232.736 43.8984C232.794 43.9459 232.828 44.017 232.828 44.0918V47.3916C232.828 48.157 232.729 48.7558 232.487 49.1299C232.23 49.5275 231.81 49.707 231.292 49.707C230.809 49.707 230.4 49.6051 230.131 49.3408C230.083 49.2938 230.057 49.2291 230.057 49.1621V44.2275C230.057 44.1581 230.085 44.0912 230.136 44.0439C230.187 43.9966 230.256 43.9724 230.325 43.9775C230.535 43.9932 230.743 44.0039 230.949 44.0039C231.45 44.0039 231.982 43.9544 232.529 43.8457ZM230.949 34.4131C231.331 34.4131 231.661 34.5532 231.923 34.8281C232.178 35.0956 232.357 35.4781 232.478 35.9502H232.477C232.672 36.6958 232.78 38.0467 232.814 39.9766C232.816 40.0509 232.784 40.1224 232.728 40.1709C232.671 40.2194 232.596 40.2401 232.522 40.2275C231.928 40.1254 231.486 40.1162 231.292 40.1162C231.007 40.1162 230.67 40.1338 230.294 40.1816C230.225 40.1905 230.154 40.1702 230.101 40.125C230.047 40.0799 230.016 40.0141 230.013 39.9443C229.956 38.5787 229.844 36.9661 229.672 35.1074C229.665 35.0328 229.692 34.9588 229.745 34.9062C230.078 34.5794 230.484 34.4131 230.949 34.4131Z" fill="#3B1389" stroke="#FFF49B" stroke-width="0.5" stroke-linejoin="round"/>
<path d="M192.073 0.25C196.513 0.25002 201.074 0.979617 205.145 3.11426L205.538 3.3252L205.541 3.32617L205.938 3.55078L205.94 3.55273L206.031 3.60547L206.033 3.60645C211.976 7.13842 214.764 12.9606 214.764 19.2793V23.7852C214.764 23.8551 214.735 23.9224 214.683 23.9697C214.46 24.175 214.239 24.3838 214.023 24.5986C209.68 28.9249 207.496 34.8548 207.496 42.4189C207.496 49.7146 209.677 55.5199 214.02 59.8613L214.448 60.2764L214.449 60.2773C214.506 60.3319 214.557 60.3778 214.621 60.4375C214.677 60.4899 214.705 60.5652 214.699 60.6416C214.49 63.0264 213.749 65.469 212.246 67.7227C210.502 70.3358 208.132 72.1023 205.725 73.2598C205.722 73.2613 205.72 73.2642 205.717 73.2656C201.812 75.1856 197.421 75.7783 193.23 75.7783C190.649 75.7783 188.095 75.5047 185.584 74.9473C185.58 74.9462 185.559 74.9416 185.549 74.9395C183.836 74.5528 182.002 74.0035 180.236 73.1768C176.223 74.9819 171.899 75.8633 167.383 75.8633C162.181 75.8633 156.798 74.9529 152.229 72.084C152.213 72.074 152.195 72.0625 152.181 72.0537V72.0527C147.01 68.7658 144.092 63.5594 144.092 57.4658V15.2334C144.092 7.85445 149.897 4.24103 153.231 2.76758L153.863 2.50098C157.722 0.929799 161.877 0.292038 166.097 0.291992C168.702 0.291992 171.287 0.607006 173.806 1.2959H173.807C175.356 1.69783 177.077 2.27951 178.753 3.1709C179.995 2.57672 181.281 2.081 182.595 1.67383C185.672 0.720587 188.844 0.25 192.073 0.25ZM192.073 10.3408C189.869 10.3408 187.736 10.6602 185.674 11.2988C183.658 11.9235 181.947 12.7994 180.536 13.9209V16.0498L185.127 23.8281C185.487 24.4227 185.762 24.9281 185.947 25.3418C186.127 25.7469 186.236 26.0936 186.236 26.3604C186.236 26.8129 186.085 27.1901 185.752 27.4443C185.453 27.6733 185.114 27.79 184.743 27.79C184.656 27.7899 184.575 27.745 184.53 27.6709C181.129 22.1067 178.944 18.5684 177.974 17.0537C177.013 15.5522 175.952 14.0779 174.793 12.6309C173.975 11.9939 172.775 11.4631 171.178 11.0498L171.173 11.0479C169.597 10.6051 167.905 10.3828 166.097 10.3828C162.893 10.3829 160.112 10.8714 157.749 11.8398H157.747C155.393 12.788 154.346 13.9373 154.346 15.2334V57.4658C154.346 60.1034 155.472 62.1318 157.744 63.5762C160.061 65.0311 163.266 65.7715 167.383 65.7715C171.463 65.7715 175.12 64.752 178.364 62.7197V60.6992L175.678 56.4307C175.677 56.4286 175.675 56.4269 175.673 56.4248L175.659 56.4004L173.044 52.2461L173.042 52.2441C172.625 51.5654 172.309 50.9894 172.096 50.5195C171.887 50.0584 171.763 49.669 171.763 49.373C171.763 48.9474 171.88 48.5812 172.142 48.3057C172.401 48.0332 172.773 47.8802 173.222 47.8193H173.295C173.366 47.8307 173.431 47.8731 173.469 47.9365L177.839 55.0986L178.588 56.2725C180.328 58.9623 182.079 61.4171 183.838 63.6377C184.803 64.2263 186.133 64.7181 187.841 65.1035H187.84C189.594 65.4929 191.39 65.6875 193.23 65.6875C196.552 65.6875 199.182 65.1985 201.135 64.2383L201.139 64.2354C202.279 63.7024 203.118 63.0169 203.673 62.1846C204.228 61.3533 204.51 60.3596 204.51 59.1934V19.2793C204.51 16.0708 203.249 13.741 200.732 12.2451V12.2441C198.554 10.9819 195.673 10.3408 192.073 10.3408Z" fill="#3B1389" stroke="#FFF49B" stroke-width="0.5" stroke-linejoin="round"/>
<path d="M121.263 8.76367C126.189 8.76371 131.495 9.67838 135.922 12.7832C135.924 12.7843 135.926 12.785 135.928 12.7861L135.999 12.8359L136 12.8369C136.007 12.842 136.016 12.8472 136.025 12.8535C136.033 12.8595 136.044 12.8666 136.054 12.874C136.056 12.8751 136.057 12.8768 136.058 12.8779C140.106 15.722 143.354 20.1975 143.354 26.1494C143.354 27.4579 143.077 29.392 142.854 30.9082C142.576 32.7997 142.168 35.3527 141.635 38.5371C141.628 38.5802 141.62 38.628 141.612 38.6748C140.394 45.3617 138.842 52.3595 136.962 59.665V59.666C136.962 59.6672 136.961 59.6708 136.96 59.6738C136.96 59.677 136.959 59.6817 136.957 59.6865C136.456 61.622 135.641 64.0125 134.632 66.6953L134.631 66.6943C133.535 69.6858 132.249 72.4844 130.696 74.9355L130.669 74.9756C126.245 81.8858 120.121 87.0943 112.094 89.124L112.084 89.127C108.947 89.917 105.756 90.3193 102.532 90.3193C96.372 90.3193 90.13 88.8081 85.2191 84.4658C85.2177 84.4646 85.2156 84.4641 85.2142 84.4629C85.2056 84.4554 85.1973 84.4475 85.1918 84.4424C85.1859 84.437 85.1824 84.4336 85.1791 84.4307L85.1771 84.4297C85.1724 84.4255 85.1676 84.4208 85.1595 84.4141C85.1522 84.4078 85.1417 84.399 85.1312 84.3896C85.1295 84.3881 85.128 84.3863 85.1263 84.3848C80.7634 80.5305 78.3832 75.3824 78.3832 69.5615C78.3832 67.9684 78.5371 66.4105 78.8383 64.8945C78.8558 64.8063 78.9198 64.7343 79.0052 64.7061C81.4183 63.9109 83.4449 62.6713 85.0912 60.9893C85.0694 56.9833 83.774 44.0968 81.1947 22.3018L80.9701 20.459C80.9059 19.9471 80.8526 19.5373 80.8099 19.2295L80.809 19.2227C80.5352 16.8002 79.8075 14.9312 78.6478 13.5908C78.5704 13.5013 78.5663 13.3695 78.6381 13.2754C80.5221 10.8136 83.4788 9.35359 86.6293 9.35352H97.6449C101.224 9.35352 104.937 10.0265 108.273 11.7803C112.303 9.56985 116.825 8.76367 121.263 8.76367ZM108.311 61.1748C108.311 61.8644 108.168 62.4195 107.786 62.7197C107.452 62.9825 107.054 63.1103 106.604 63.1104C106.199 63.1104 105.86 63.0959 105.59 63.0664C105.579 63.0652 105.569 63.0631 105.558 63.0605C105.336 63.0061 105.13 62.9662 104.94 62.9395V62.9375C104.922 62.9357 104.905 62.9359 104.896 62.9346C104.87 62.9308 104.836 62.9249 104.793 62.918C104.708 62.9041 104.588 62.8837 104.431 62.8564C104.118 62.8019 103.659 62.7202 103.055 62.6113C101.848 62.3936 100.06 62.0669 97.6908 61.6318L97.0638 61.5332C95.6342 61.3193 94.4285 61.2139 93.4447 61.2139C92.3815 61.2139 91.6542 61.2638 91.2406 61.3535C89.5027 63.933 88.6372 66.667 88.6371 69.5615C88.6371 72.4939 89.7614 74.9412 92.0228 76.918L92.0258 76.9199C94.4801 79.1139 97.97 80.2285 102.532 80.2285C104.882 80.2285 107.219 79.9356 109.542 79.3506C114.468 78.105 118.621 74.8654 121.995 69.5957C123.069 67.9013 124.075 65.7694 125.014 63.1963L125.015 63.1943C125.986 60.612 126.654 58.6125 127.022 57.1924C128.621 50.9767 129.968 45.0196 131.064 39.3213L131.518 36.8945C132.046 33.7357 132.443 31.2591 132.706 29.4639C132.972 27.6584 133.1 26.5625 133.1 26.1494C133.1 24.172 132.101 22.4708 130.036 21.0439L130.033 21.042C128.006 19.595 125.093 18.8545 121.263 18.8545C117.483 18.8545 114.479 19.6591 112.228 21.2412C111.696 23.639 111.189 27.0384 110.71 31.4443C110.254 35.8758 110.026 40.1524 110.026 44.2734C110.026 44.9114 109.92 45.4335 109.672 45.8027C109.413 46.1898 109.019 46.3779 108.533 46.3779C108.154 46.3779 107.802 46.3002 107.479 46.1416C107.405 46.1053 107.354 46.0345 107.342 45.9531C107.311 45.7371 107.296 45.3977 107.296 44.9473V43.9775C107.296 38.9485 107.609 33.9891 108.237 29.0996C107.867 26.1642 107.023 23.9666 105.729 22.4775V22.4766C103.962 20.4688 101.283 19.4443 97.6449 19.4443H86.764C85.1297 21.8756 84.308 24.725 84.308 28.0039C84.308 31.3257 85.2354 34.1642 87.0834 36.5322C87.1115 36.5683 87.1298 36.6117 87.1351 36.6572C87.9331 43.4671 89.4559 48.8397 91.6908 52.79C93.4974 55.9821 95.6111 58.0503 98.0199 59.0371L108.107 60.9287C108.225 60.9509 108.311 61.0545 108.311 61.1748Z" fill="#3B1389" stroke="#FFF49B" stroke-width="0.5" stroke-linejoin="round"/>
<path d="M68.1989 0.25C73.0997 0.250042 78.6397 1.00304 83.1315 4.09473C83.1332 4.09586 83.1356 4.09648 83.1373 4.09766C83.1468 4.10407 83.1558 4.11036 83.1627 4.11523C83.1702 4.12053 83.1753 4.12454 83.1803 4.12793L83.1823 4.12891C83.193 4.13634 83.2503 4.17452 83.2701 4.18848C83.2746 4.19163 83.2776 4.19678 83.2819 4.2002C88.2944 7.6755 90.3694 12.9517 90.9703 17.8779H90.9713C91.0188 18.2211 91.0749 18.652 91.1393 19.1641C91.1482 19.2351 91.126 19.3066 91.0787 19.3604C91.0313 19.4141 90.9629 19.4453 90.8912 19.4453H86.7643C85.1301 21.8764 84.3073 24.7252 84.3073 28.0039C84.3073 31.1182 85.123 33.8078 86.7477 36.083L87.0836 36.5332L87.1178 36.5918C87.1264 36.6127 87.1327 36.6346 87.1354 36.6572C87.9333 43.4668 89.4553 48.8398 91.6901 52.79H91.691C92.663 54.5074 93.725 55.8998 94.8737 56.9736L95.1041 57.1846L95.1373 57.2197C95.1668 57.2584 95.1848 57.3053 95.1881 57.3545C95.2912 58.9078 95.3445 60.141 95.3463 61.0439C95.3465 61.1141 95.317 61.1811 95.2653 61.2285C95.2136 61.2759 95.1446 61.3 95.0748 61.2939C94.4758 61.2414 93.9326 61.2139 93.4449 61.2139C92.3812 61.2139 91.6533 61.2637 91.2399 61.3535C89.502 63.9331 88.6373 66.6679 88.6373 69.5625C88.6373 70.0396 88.6694 70.504 88.7291 70.9561C88.7415 71.0502 88.6995 71.1433 88.6207 71.1963C83.665 74.5194 77.7457 75.8633 71.6276 75.8633C66.8444 75.8633 61.8484 75.1255 57.5338 72.7158C57.5323 72.715 57.5305 72.7147 57.5289 72.7139C57.5241 72.7112 57.5194 72.7088 57.5162 72.707C57.5126 72.705 57.5102 72.7031 57.5084 72.7021L57.5074 72.7012C57.4887 72.6907 57.4405 72.665 57.4147 72.6504C57.4115 72.6486 57.409 72.6455 57.4059 72.6436C56.8865 72.3531 56.3817 72.0417 55.8942 71.709C53.6031 73.0595 51.151 74.0851 48.5533 74.752C48.549 74.7534 48.5451 74.7566 48.5406 74.7578C48.5218 74.7629 48.503 74.7665 48.4899 74.7695C48.4754 74.7728 48.4662 74.7751 48.4576 74.7773L48.4547 74.7783C48.4448 74.7808 48.4343 74.7839 48.4196 74.7881C48.4058 74.792 48.3876 74.7971 48.3688 74.8018C48.3641 74.8029 48.3589 74.8018 48.3541 74.8027C45.2261 75.6132 41.5514 75.8633 37.8082 75.8633C32.9835 75.8632 28.3037 74.9211 23.9928 72.8018C18.2733 69.9897 13.403 64.7872 13.403 57.0859C13.403 52.7987 14.2149 43.1468 15.6823 28.8291C15.6825 28.8263 15.6827 28.8231 15.6832 28.8174C15.6837 28.8124 15.6844 28.8047 15.6852 28.7969C16.4845 21.2455 17.1522 15.7224 17.6852 12.4238L17.7614 12.0059C18.1908 9.93039 19.2911 8.04291 20.902 6.62793C26.3607 1.83356 33.495 0.25005 40.5944 0.25C45.3441 0.25 50.0363 1.01472 54.2838 2.98633C56.0202 2.23457 57.855 1.67536 59.6676 1.24316L60.1871 1.11914C62.7913 0.519128 65.4761 0.25 68.1989 0.25ZM47.2301 53.4893C47.2287 53.4882 47.2273 53.4872 47.2262 53.4863C45.5179 52.4011 44.0932 50.9174 42.9528 49.0391V49.04C42.5964 48.4561 42.4021 47.9046 42.402 47.3926C42.402 47.0182 42.516 46.6955 42.7809 46.4736C43.0373 46.2589 43.3947 46.1729 43.8092 46.1729H44.067L44.1324 46.1816C44.1965 46.1991 44.2516 46.2421 44.2848 46.3018C45.6149 48.695 47.0593 50.3544 48.608 51.3076L48.611 51.3086C50.1935 52.2641 52.1045 52.748 54.3541 52.748C56.5575 52.748 58.4412 52.2411 60.0162 51.2383C61.5918 50.235 62.8751 48.725 63.859 46.6934L63.8981 46.6348C63.9448 46.583 64.0118 46.5518 64.0836 46.5518L64.1178 46.5508C64.1582 46.5242 64.2064 46.5098 64.2555 46.5098H64.3834C64.7924 46.5098 65.1458 46.6103 65.3951 46.8555C65.6451 47.1013 65.7476 47.4508 65.7477 47.8555C65.7477 48.461 65.4743 49.1429 64.9772 49.8906L64.9742 49.8955C63.1934 52.4527 61.0001 54.0754 58.3951 54.7451L58.7604 58.4951V58.499C58.9406 60.675 60.0433 62.393 62.1071 63.6592L62.5328 63.9062L62.5358 63.9072C64.7122 65.1419 67.7352 65.7715 71.6276 65.7715C77.5086 65.7715 81.9827 64.1656 85.0914 60.9893C85.0695 56.983 83.7742 44.0964 81.1949 22.3018C81.0235 20.8689 80.8956 19.8452 80.8102 19.2295L80.8092 19.2236C80.4429 15.9819 79.2653 13.7281 77.316 12.4053L77.3131 12.4033C75.3755 11.0424 72.3517 10.3409 68.1989 10.3408C65.9877 10.3408 63.9508 10.5779 62.0875 11.0498L62.0846 11.0508C60.263 11.485 58.7881 11.9962 57.6539 12.5801L53.611 29.1172C53.5831 29.2312 53.4793 29.3104 53.3619 29.3076C52.76 29.2928 52.2639 29.1519 51.9166 28.8447C51.5627 28.5315 51.403 28.0813 51.403 27.54C51.403 27.1225 51.4642 26.6932 51.5836 26.2529L53.0651 20.1289L50.7584 12.5391C48.0763 11.0797 44.6929 10.3408 40.5944 10.3408C34.9282 10.3409 30.676 11.6066 27.7965 14.0977C27.3136 17.1116 26.6767 22.3583 25.8844 29.8428C24.3981 44.3454 23.6569 53.4205 23.6569 57.0859C23.6569 59.9134 25.2606 62.1449 28.5748 63.7744C31.2791 65.104 34.3551 65.7714 37.8082 65.7715C41.3156 65.7715 43.991 65.5188 45.8453 65.0215L45.8492 65.0205L46.5524 64.8301C48.1426 64.3631 49.6599 63.6709 51.108 62.7588L51.4362 55.1553C49.9924 54.9545 48.6178 54.4158 47.3141 53.543V53.542L47.2448 53.499L47.2301 53.4893Z" fill="#3B1389" stroke="#FFF49B" stroke-width="0.5" stroke-linejoin="round"/>
</g>
<defs>
<filter id="filter0_d_381_1527" x="9.15295" y="0" width="351.694" height="98.5693" filterUnits="userSpaceOnUse" color-interpolation-filters="sRGB">
<feFlood flood-opacity="0" result="BackgroundImageFix"/>
<feColorMatrix in="SourceAlpha" type="matrix" values="0 0 0 0 0 0 0 0 0 0 0 0 0 0 0 0 0 0 127 0" result="hardAlpha"/>
<feOffset dy="4"/>
<feGaussianBlur stdDeviation="2"/>
<feComposite in2="hardAlpha" operator="out"/>
<feColorMatrix type="matrix" values="0 0 0 0 1 0 0 0 0 0 0 0 0 0 0 0 0 0 0.25 0"/>
<feBlend mode="normal" in2="BackgroundImageFix" result="effect1_dropShadow_381_1527"/>
<feBlend mode="normal" in="SourceGraphic" in2="effect1_dropShadow_381_1527" result="shape"/>
</filter>
<linearGradient id="paint0_linear_381_1527" x1="174.399" y1="38.8876" x2="176.286" y2="60.9526" gradientUnits="userSpaceOnUse">
<stop stop-color="#FFF49B"/>
<stop offset="0.477551" stop-color="#A3C1FF"/>
<stop offset="0.496829" stop-color="white" stop-opacity="0.4"/>
<stop offset="1" stop-color="#FFF49B"/>
</linearGradient>
<linearGradient id="paint1_linear_381_1527" x1="174.399" y1="38.8877" x2="176.286" y2="60.9526" gradientUnits="userSpaceOnUse">
<stop stop-color="#FFF49B"/>
<stop offset="0.477551" stop-color="#A3C1FF"/>
<stop offset="0.496829" stop-color="white" stop-opacity="0.4"/>
<stop offset="1" stop-color="#FFF49B" stop-opacity="0.419608"/>
</linearGradient>
<linearGradient id="paint2_linear_381_1527" x1="174.399" y1="38.8877" x2="176.286" y2="60.9526" gradientUnits="userSpaceOnUse">
<stop stop-color="#FFF49B"/>
<stop offset="0.477551" stop-color="#A3C1FF"/>
<stop offset="0.496829" stop-color="white" stop-opacity="0.4"/>
<stop offset="1" stop-color="#FFF49B"/>
</linearGradient>
<linearGradient id="paint3_linear_381_1527" x1="174.399" y1="38.8874" x2="176.286" y2="60.9523" gradientUnits="userSpaceOnUse">
<stop stop-color="#FFF49B"/>
<stop offset="0.477551" stop-color="#A3C1FF"/>
<stop offset="0.496829" stop-color="white" stop-opacity="0.4"/>
<stop offset="1" stop-color="#FFF49B"/>
</linearGradient>
<linearGradient id="paint4_linear_381_1527" x1="174.399" y1="38.8876" x2="176.286" y2="60.9526" gradientUnits="userSpaceOnUse">
<stop stop-color="#FFF49B"/>
<stop offset="0.477551" stop-color="#A3C1FF"/>
<stop offset="0.496829" stop-color="white" stop-opacity="0.4"/>
<stop offset="1" stop-color="#FFF49B"/>
</linearGradient>
<linearGradient id="paint5_linear_381_1527" x1="174.399" y1="38.8874" x2="176.286" y2="60.9523" gradientUnits="userSpaceOnUse">
<stop stop-color="#FFF49B"/>
<stop offset="0.477551" stop-color="#A3C1FF"/>
<stop offset="0.496829" stop-color="white" stop-opacity="0.4"/>
<stop offset="1" stop-color="#FFF49B"/>
</linearGradient>
</defs>
</svg>
